<svg width="580" height="400" xmlns="http://www.w3.org/2000/svg">
 <!-- Created with Method Draw - http://github.com/duopixel/Method-Draw/ -->

 <g>
  <title>background</title>
  <rect fill="#fff" id="canvas_background" height="402" width="582" y="-1" x="-1"/>
  <g display="none" overflow="visible" y="0" x="0" height="100%" width="100%" id="canvasGrid">
   <rect fill="url(#gridpattern)" stroke-width="0" y="0" x="0" height="100%" width="100%"/>
  </g>
 </g>
 <g>
  <title>Layer 1</title>
  <path stroke="#000" id="svg_1" d="m407.579729,63.000002c-35.564461,19.176741 -84.721192,19.362886 -120.555781,0.571735c-34.465108,18.079455 -81.272965,18.596993 -116.444545,1.551944l-63.243233,45.308811c38.90345,28.375423 38.677337,73.965268 -0.664798,102.146147c-5.22142,9.621504 -7.958,9.157539 -8.527626,18.846789c-1.339628,23.327676 6.505335,45.089418 31.078264,61.479216c21.950858,14.640676 51.739096,20.850086 80.353041,18.634574c47.781773,1.768583 70.68871,16.593751 80.300549,25.4608c12.978988,-9.474364 33.162502,-24.705482 94.506225,-26.604214c36.61962,-3.786568 49.853156,-9.90376 67.039542,-21.21336c23.132404,-15.428737 31.220974,-34.966109 30.539247,-56.674013c-0.283093,-9.01206 -1.822451,-12.14524 -9.423216,-23.652075c-39.524592,-28.311542 -39.553343,-74.197044 -0.104916,-102.542826l-64.852755,-43.313528z" stroke-width="26.5" fill="#fff"/>
  <text font-style="normal" font-weight="bold" stroke="#000" transform="matrix(11.830425454891996,0,0,7.179699003128047,-1855.9901090838027,-785.9487488062462) " xml:space="preserve" text-anchor="start" font-family="'Simonetta', serif" font-size="26" id="svg_2" y="144.595733" x="172.237663" stroke-width="0" fill="#000000">R</text>
 </g>
</svg>